<svg xmlns="http://www.w3.org/2000/svg" width="20" height="20" viewBox="0 0 20 20" fill="none">
    <path d="M1.10994 17.6471V1.17647V14.3941V12.0059V17.6471ZM1.79366 18.8235C1.28235 18.8235 0.855763 18.6424 0.513902 18.28C0.17204 17.9176 0.00073996 17.4651 0 16.9224V1.90118C0 1.35922 0.1713 0.907059 0.513902 0.544706C0.856503 0.182353 1.28309 0.000784314 1.79366 0H15.9665C16.4771 0 16.9036 0.181568 17.2462 0.544706C17.5888 0.907843 17.7598 1.36 17.759 1.90118V11.2671H16.6491V1.90118C16.6491 1.72 16.5781 1.55373 16.436 1.40235C16.2939 1.25098 16.137 1.17569 15.9654 1.17647H1.79366C1.62273 1.17647 1.46586 1.25176 1.32305 1.40235C1.18024 1.55294 1.1092 1.71922 1.10994 1.90118V16.9235C1.10994 17.1039 1.18098 17.2698 1.32305 17.4212C1.46512 17.5725 1.62162 17.6478 1.79255 17.6471H8.83734V18.8235H1.79366ZM14.7111 20L11.6677 16.7965L12.4591 15.9635L14.7111 18.3506L19.2142 13.5776L20 14.4165L14.7111 20ZM4.56851 10.3176C4.81122 10.3176 5.01434 10.231 5.17787 10.0576C5.34066 9.8851 5.42205 9.6698 5.42205 9.41177C5.42205 9.15373 5.34066 8.93843 5.17787 8.76588C5.01508 8.59333 4.81159 8.50706 4.5674 8.50706C4.32321 8.50706 4.1201 8.59333 3.95804 8.76588C3.79599 8.93843 3.7146 9.15373 3.71386 9.41177C3.71312 9.6698 3.79451 9.8851 3.95804 10.0576C4.12158 10.2302 4.32506 10.3165 4.56851 10.3165M4.56851 5.88235C4.81122 5.88235 5.01434 5.79608 5.17787 5.62353C5.34066 5.45098 5.42205 5.23529 5.42205 4.97647C5.42205 4.71765 5.34066 4.50275 5.17787 4.33176C5.01508 4.16078 4.81159 4.07451 4.5674 4.07294C4.32321 4.07137 4.1201 4.15765 3.95804 4.33176C3.79599 4.50588 3.7146 4.72118 3.71386 4.97765C3.71312 5.23412 3.79451 5.44941 3.95804 5.62353C4.12158 5.79765 4.32506 5.88392 4.56851 5.88235ZM7.98269 10H13.9597V8.82353H7.98269V10ZM7.98269 5.56471H13.9597V4.38824H7.98269V5.56471Z" fill="black"/>
</svg>