<svg version="1.1" id="Layer_1" xmlns="http://www.w3.org/2000/svg" xmlns:xlink="http://www.w3.org/1999/xlink" x="0px" y="0px"
	 width="100%" viewBox="0 0 736 640" enable-background="new 0 0 736 640" xml:space="preserve">
<path fill="#000000" opacity="1.000000" stroke="none" 
	d="
M72.248314,386.867188 
	C74.528099,386.843628 76.468468,386.448883 78.172623,386.915955 
	C84.190590,388.565338 85.339485,384.274078 87.344131,379.947632 
	C79.446167,378.455292 72.106491,379.606750 64.973106,380.748566 
	C63.664787,378.786499 64.805901,377.517914 65.337151,376.215790 
	C78.700462,343.461151 100.686401,317.699493 129.499374,297.582520 
	C132.678299,295.363007 133.573288,293.196503 133.316589,289.358002 
	C132.750427,280.891968 132.877151,272.374573 132.857712,263.877838 
	C132.774216,227.383392 132.853378,190.888031 132.600998,154.394882 
	C132.544479,146.222916 134.992004,139.809097 140.750198,133.824020 
	C173.429916,99.856651 205.823624,65.614052 238.302994,31.454027 
	C243.225769,26.276522 248.830368,23.515881 256.359406,23.528934 
	C350.844940,23.692759 445.330872,23.623791 539.816711,23.606998 
	C551.925476,23.604845 556.288818,27.952806 556.292053,40.253601 
	C556.310303,109.409935 556.305359,178.566269 556.332092,247.722610 
	C556.332703,249.340012 555.910034,251.032944 556.990784,252.926620 
	C561.004211,251.680527 563.195740,247.511703 567.378174,246.180389 
	C567.787720,246.629456 568.420654,247.019928 568.595154,247.558838 
	C574.122253,264.634705 586.633057,275.961273 600.360229,286.313538 
	C606.065857,290.616394 606.002747,290.636200 600.816284,295.834991 
	C588.421387,308.259552 574.926086,319.351196 560.224976,328.919281 
	C557.132874,330.931763 556.243164,333.243896 556.252869,336.736298 
	C556.340576,368.397919 556.658997,400.066040 556.152893,431.720123 
	C555.700928,459.984131 551.881592,487.777924 540.500854,514.035095 
	C537.178345,521.700562 533.153687,528.961548 527.739929,535.410522 
	C524.298401,539.510071 520.180054,541.527771 514.706543,541.459717 
	C500.044342,541.277466 485.378326,541.378418 470.713898,541.411438 
	C468.090576,541.417358 465.401733,541.134155 462.660950,542.420410 
	C462.987305,547.636597 465.136230,552.367554 466.527313,557.259583 
	C467.410858,560.366760 467.005920,562.083862 463.443207,562.276245 
	C444.905457,563.277161 428.722168,570.989136 413.202271,580.315002 
	C409.297363,582.661499 407.835358,581.952026 406.580811,577.839050 
	C403.425079,567.493347 399.864685,557.270996 396.716400,546.923096 
	C395.552368,543.097046 393.941589,541.217224 389.460144,541.272888 
	C368.466431,541.533752 347.466858,541.502869 326.471710,541.315186 
	C322.214600,541.277222 320.317444,542.597656 319.383331,546.834839 
	C317.125153,557.077820 313.954407,567.083374 310.129852,576.865234 
	C307.805908,582.809021 306.965546,583.220825 301.535339,579.799072 
	C289.884552,572.457520 277.636230,566.571167 264.034790,563.930969 
	C259.023315,562.958191 253.924850,562.433350 248.721695,561.683289 
	C248.244751,556.550598 250.892441,552.420959 251.781265,547.919739 
	C253.058884,541.449524 253.194504,541.385986 246.717484,541.384460 
	C210.056259,541.375793 173.395020,541.383362 136.733795,541.393921 
	C133.726456,541.394836 130.781937,541.358032 127.989044,539.872437 
	C122.628281,537.020874 119.893967,531.665283 122.158066,526.049438 
	C128.688446,509.851624 132.321915,492.994202 134.123215,475.731689 
	C136.280670,455.056030 137.965759,434.335846 137.559631,413.335785 
	C134.475021,413.365723 134.127335,417.120361 130.584000,417.299042 
	C125.533562,403.352814 115.955879,392.693726 102.514633,385.049896 
	C101.162918,387.035248 99.703201,389.179260 98.328423,391.198486 
	C99.512932,393.574463 101.672417,393.892303 103.312912,394.928284 
	C117.357697,403.797852 125.971352,415.799438 125.315819,433.123840 
	C124.860344,445.160950 116.763550,456.109772 105.403542,459.910889 
	C103.444305,460.566498 101.773102,461.158752 100.734055,463.189117 
	C97.215858,470.063965 90.913826,472.962708 83.773033,474.113800 
	C81.047768,474.553101 79.206841,475.553955 77.610847,477.687897 
	C63.853390,496.081909 46.029568,509.490784 25.727316,519.844360 
	C23.170336,521.148315 20.640480,521.563904 18.234632,519.645569 
	C15.947288,517.821716 15.905995,515.348633 16.657598,512.810059 
	C21.993895,494.786804 26.315973,476.327698 37.962990,460.920288 
	C40.071968,458.130402 39.867245,455.970886 38.429527,452.840759 
	C30.523483,435.628204 29.623589,418.518768 42.371662,403.171265 
	C49.850956,394.166901 59.638088,388.060577 72.248314,386.867188 
M417.499969,524.747314 
	C446.833130,524.746826 476.167084,524.641296 505.498718,524.851196 
	C510.288605,524.885498 513.163513,523.302246 515.521179,519.237854 
	C522.520508,507.171661 527.601562,494.366821 530.681824,480.810211 
	C535.408447,460.007660 537.440186,438.863495 538.112366,417.568634 
	C538.568726,403.111023 539.277222,388.658752 539.526245,374.198120 
	C539.695251,364.382019 539.129150,354.555695 539.120911,344.733704 
	C539.037964,245.568481 539.001709,146.403198 538.954895,47.237938 
	C538.951599,40.189991 538.960938,40.177746 532.198608,40.176979 
	C442.699951,40.166843 353.201202,40.198586 263.702759,40.051521 
	C258.705841,40.043312 257.141846,41.340569 257.179138,46.473259 
	C257.406738,77.804657 257.294434,109.138519 257.296967,140.471558 
	C257.297974,152.611115 254.968674,154.943039 242.634933,154.949860 
	C213.968582,154.965714 185.301834,155.025146 156.636276,154.872940 
	C151.998703,154.848312 150.237854,156.145340 150.227020,161.079605 
	C150.190125,177.895874 149.592682,194.710007 149.381851,211.527115 
	C149.250366,222.014755 149.858124,232.503799 150.003815,242.980957 
	C150.392822,270.958984 151.783829,298.885864 153.064758,326.825256 
	C154.749924,363.581604 157.113358,400.328369 156.256577,437.151489 
	C155.764587,458.296478 153.923111,479.325256 149.561234,500.092834 
	C147.857788,508.203125 145.336288,516.063049 142.500275,524.747498 
	C234.297501,524.747498 325.398712,524.747498 417.499969,524.747314 
M189.681274,107.180313 
	C180.732910,117.288689 170.595444,126.336166 161.772202,137.511978 
	C163.862595,137.616714 165.014526,137.724518 166.166489,137.724731 
	C188.968018,137.729218 211.770630,137.602188 234.570190,137.811203 
	C239.420303,137.855682 240.802979,136.263367 240.763153,131.516068 
	C240.560669,107.384727 240.679596,83.250763 240.637421,59.117798 
	C240.635330,57.921322 241.261124,56.478642 239.650665,55.321331 
	C223.152222,72.452065 206.668457,89.567574 189.681274,107.180313 
M37.319508,488.297058 
	C47.051464,495.567932 47.051056,495.567535 55.797794,486.894043 
	C56.270748,486.424988 56.856293,486.038239 57.225151,485.500488 
	C59.689037,481.908447 63.830208,479.551483 65.441078,474.784698 
	C58.917393,473.118439 53.571880,469.796204 47.994431,466.097076 
	C43.115559,472.111603 39.351658,478.327545 35.993992,484.814117 
	C35.350975,486.056396 35.730648,487.058105 37.319508,488.297058 
M91.760429,432.975098 
	C90.384148,431.101013 89.093315,429.155945 87.610558,427.370270 
	C85.639786,424.996887 82.982422,424.894928 80.296814,425.742126 
	C75.988159,427.101379 73.203079,431.577667 73.269310,436.743225 
	C73.339844,442.243103 76.291740,446.424774 80.923203,447.792603 
	C84.371658,448.811035 87.344788,447.932159 89.430893,445.215240 
	C92.010788,441.855194 93.876793,438.109192 91.760429,432.975098 
M134.831390,339.652679 
	C135.619827,334.704041 133.174301,331.792542 128.820602,330.050873 
	C124.576927,328.353210 122.319916,331.454224 119.911850,333.860962 
	C117.233650,336.537720 115.042831,339.609894 113.647415,343.329529 
	C116.644928,345.518585 119.425430,347.549194 122.609314,349.874359 
	C125.606300,345.181396 127.847534,339.664612 134.698059,340.803558 
	C134.703674,340.804474 134.760529,340.497253 134.831390,339.652679 
M29.258474,503.983948 
	C29.116436,504.972748 28.187738,506.720825 30.410994,505.951904 
	C32.548576,505.212616 34.395714,503.785278 35.305233,501.581482 
	C34.585835,500.056946 33.800087,498.855225 31.875965,498.777588 
	C30.373842,499.884460 30.139050,501.773163 29.258474,503.983948 
z"/>
<path fill="#000000" opacity="1.000000" stroke="none" 
	d="
M709.491455,148.464050 
	C701.269043,160.225708 693.277222,171.709396 685.226990,183.151978 
	C679.759216,190.923828 672.776123,196.910126 664.311584,201.327225 
	C661.436218,202.827728 659.622009,202.563019 657.271912,200.514832 
	C647.943054,192.384476 637.482971,186.439819 624.985474,184.729675 
	C623.995605,184.594238 622.960999,184.181702 622.025696,184.345673 
	C613.283264,185.878372 609.609619,180.819153 606.193420,173.720383 
	C599.466919,159.742950 593.452942,145.501678 587.911072,131.037277 
	C586.638428,127.715736 586.156006,124.344597 586.545837,120.760056 
	C587.350220,113.363853 590.155823,109.689575 596.873352,107.736511 
	C603.207825,105.894798 609.165344,107.902374 613.150391,113.403572 
	C615.505676,116.655029 617.143677,120.310158 618.604126,124.047470 
	C619.081604,125.269348 619.832031,126.384521 620.652405,127.910751 
	C622.888550,126.261803 623.135376,123.912888 623.636658,121.796432 
	C626.357178,110.310356 628.970642,98.798973 631.683533,87.311058 
	C632.810425,82.539139 634.595642,78.050392 638.587585,74.883438 
	C643.426086,71.044868 650.906006,70.456146 656.021484,73.516579 
	C661.734680,76.934570 663.668091,82.379974 662.644409,88.535370 
	C661.364807,96.229866 659.261414,103.784859 657.643066,111.427483 
	C657.284302,113.121544 656.150024,114.810753 657.064026,116.745850 
	C659.696411,117.062630 659.921753,114.774124 660.695801,113.347626 
	C664.904114,105.592102 668.765625,97.639061 673.207581,90.022903 
	C676.242004,84.819923 681.036255,81.721283 687.361145,82.485481 
	C693.253418,83.197418 697.666382,86.242325 699.618347,92.097603 
	C700.863403,95.832336 700.797913,99.614212 699.437744,103.355164 
	C697.035217,109.963036 693.692810,116.097298 690.092224,122.106651 
	C688.422058,124.894150 686.453857,127.544518 685.245850,131.504410 
	C688.521729,130.304291 689.803101,128.147446 691.306213,126.310036 
	C694.160034,122.821312 697.026367,119.314903 700.719421,116.702980 
	C705.728149,113.160614 712.306824,113.338074 716.555176,116.853027 
	C720.678894,120.264847 721.905823,127.858032 719.065247,134.019058 
	C716.679199,139.194214 712.922180,143.517883 709.491455,148.464050 
z"/>
<path fill="#000000" opacity="1.000000" stroke="none" 
	d="
M403.531982,591.667969 
	C404.574158,589.496948 406.057953,589.149048 407.875854,589.618347 
	C411.791260,590.628967 414.903656,589.054077 418.084625,586.906921 
	C438.398560,573.194824 460.654297,566.250061 485.212280,569.791443 
	C509.846527,573.343872 533.154236,589.037537 539.607727,616.120728 
	C540.104126,618.203857 540.381836,620.381104 540.422913,622.521118 
	C540.491089,626.079041 538.692505,628.142090 535.004089,628.286743 
	C534.005493,628.325928 533.004639,628.314209 532.004822,628.314209 
	C489.176605,628.313354 446.348389,628.314148 403.520172,628.306641 
	C395.286713,628.305237 393.569153,626.287720 394.868927,618.011658 
	C396.301178,608.891785 399.369202,600.292847 403.531982,591.667969 
z"/>
<path fill="#000000" opacity="1.000000" stroke="none" 
	d="
M305.745850,589.830078 
	C309.390167,588.424438 311.423920,589.658264 312.916931,592.672913 
	C317.383240,601.690918 320.462311,611.154175 321.901550,621.094177 
	C322.603699,625.943542 320.401947,628.284851 315.380463,628.289551 
	C271.074982,628.330933 226.769379,628.330017 182.463898,628.272705 
	C176.853699,628.265442 174.655609,624.881409 176.092285,618.645264 
	C180.752441,598.417175 192.738632,584.011536 211.593643,575.679321 
	C238.011627,564.005066 263.566956,568.068359 288.333282,581.093384 
	C292.153503,583.102478 295.716431,585.611450 299.341309,587.976685 
	C301.194214,589.185669 303.018768,590.283508 305.745850,589.830078 
z"/>
<path fill="#000000" opacity="1.000000" stroke="none" 
	d="
M590.345093,219.345367 
	C595.994751,211.659454 600.827271,203.874664 604.971497,195.693954 
	C606.867798,191.950562 609.270996,190.620392 613.647766,190.882965 
	C629.165771,191.813934 643.001526,196.420853 654.357544,207.441025 
	C656.227539,209.255630 656.983643,210.815277 655.899292,213.524979 
	C645.833557,238.679169 632.001099,261.461487 613.621582,281.422363 
	C612.232056,282.931488 611.044800,285.273193 608.381592,283.120728 
	C598.444763,275.089447 587.261841,268.375854 580.657593,256.831787 
	C579.831116,255.387161 579.016724,253.935471 578.207214,252.481232 
	C573.689697,244.365646 572.513000,237.012070 581.267883,230.402084 
	C584.876221,227.677750 587.216919,223.274460 590.345093,219.345367 
z"/>
<path fill="#000000" opacity="1.000000" stroke="none" 
	d="
M405.345825,399.861938 
	C409.577850,420.118774 413.746796,439.957092 417.974060,459.782959 
	C418.662720,463.012878 417.932129,465.767639 415.619598,468.022430 
	C406.080261,477.323792 396.553436,486.639526 386.893097,495.814240 
	C383.663269,498.881714 379.794159,499.055176 376.556091,495.924744 
	C366.499115,486.202057 356.602386,476.312775 346.708160,466.423370 
	C344.921143,464.637177 344.840088,462.364349 345.399078,459.893738 
	C351.597626,432.497559 357.720062,405.084137 363.882782,377.679810 
	C364.435089,375.223785 365.383759,373.381165 368.596588,373.928558 
	C377.525452,375.449860 386.546600,374.694458 395.508789,374.405396 
	C398.994659,374.293030 400.277252,375.356354 400.891296,378.464752 
	C402.275787,385.473206 403.821869,392.449738 405.345825,399.861938 
z"/>
<path fill="#000000" opacity="1.000000" stroke="none" 
	d="
M337.299530,261.473999 
	C335.362183,255.551437 334.014496,249.887772 333.197815,244.114578 
	C331.592590,232.767044 336.982880,226.626190 348.382629,226.627029 
	C371.872040,226.628784 395.361481,226.608673 418.850891,226.586243 
	C427.310760,226.578171 432.967865,231.063614 432.673065,239.501877 
	C431.925842,260.887390 425.428650,279.891357 406.249664,292.010651 
	C386.761292,304.325500 361.183563,299.248474 347.312134,280.804108 
	C342.967865,275.027710 339.635651,268.735443 337.299530,261.473999 
M357.558746,276.951416 
	C376.589478,296.781647 404.192444,286.973267 412.380646,270.588409 
	C405.284180,265.056427 397.327454,260.844513 388.256592,262.928101 
	C383.529388,264.013947 379.645142,267.181061 375.205902,262.671875 
	C374.593994,262.050293 372.934875,262.224030 371.809967,262.381805 
	C364.922241,263.347595 358.664520,265.699066 353.727448,270.724274 
	C354.106262,273.274689 355.754028,274.755920 357.558746,276.951416 
z"/>
<path fill="#000000" opacity="1.000000" stroke="none" 
	d="
M433.877075,160.098053 
	C441.833710,143.193893 454.654846,136.062271 470.284760,139.687195 
	C479.243073,141.764847 486.159546,147.095657 490.223450,155.059311 
	C498.103088,170.500351 498.563507,186.442383 490.104706,201.860031 
	C483.735077,213.469833 473.774078,219.618195 460.115295,218.285690 
	C447.813965,217.085571 439.751251,209.860229 434.711121,199.133453 
	C428.763336,186.474945 428.651184,173.483963 433.877075,160.098053 
M468.228882,171.621277 
	C469.217896,171.738678 470.211212,171.984726 471.195251,171.952164 
	C476.712860,171.769440 481.272522,167.597397 481.636292,162.474762 
	C482.038269,156.814148 477.987152,151.375137 472.611206,150.357651 
	C467.387451,149.368988 462.534515,152.512482 460.788910,158.015579 
	C459.145355,163.196960 461.557770,168.042343 468.228882,171.621277 
z"/>
<path fill="#000000" opacity="1.000000" stroke="none" 
	d="
M299.836914,139.431549 
	C310.351501,137.697678 319.132050,140.610809 326.272583,147.712280 
	C342.631348,163.981522 341.620575,195.346863 324.450378,210.786575 
	C310.682373,223.167007 289.326050,220.312225 279.300598,204.751205 
	C268.080292,187.335602 269.481079,164.867523 282.796143,149.014740 
	C287.164124,143.814270 293.069458,141.270767 299.836914,139.431549 
M322.743500,164.308243 
	C324.491058,155.706223 317.635101,148.020096 310.101624,150.135544 
	C305.047882,151.554703 301.400482,156.122589 301.412598,161.017502 
	C301.424866,165.979111 305.178528,170.606583 310.154785,171.794861 
	C314.985596,172.948395 319.526154,170.478607 322.743500,164.308243 
z"/>
<path fill="#000000" opacity="1.000000" stroke="none" 
	d="
M409.951294,351.794067 
	C409.700104,352.274231 409.587067,352.411316 409.544250,352.567627 
	C406.155670,364.940552 398.333984,369.678375 385.566711,367.521454 
	C379.896179,366.563446 373.922607,367.210999 368.097565,367.426483 
	C364.602264,367.555786 362.420197,366.166870 361.002594,363.110596 
	C358.199890,357.068207 355.208740,351.109863 352.537720,345.010712 
	C349.344147,337.718231 353.600555,330.147400 361.576904,329.904907 
	C375.562134,329.479736 389.578949,329.458679 403.563599,329.886688 
	C411.991730,330.144623 416.304291,337.988281 412.903564,345.589966 
	C412.019592,347.565948 411.051605,349.504333 409.951294,351.794067 
z"/>
<path fill="#000000" opacity="1.000000" stroke="none" 
	d="
M257.000000,410.157104 
	C243.187714,410.154053 229.875397,410.140747 216.563141,410.156281 
	C213.579819,410.159790 210.865387,409.653778 209.436035,406.632843 
	C207.625183,402.805664 210.474884,399.001495 215.566254,398.827545 
	C221.550049,398.623077 227.545654,398.755402 233.536133,398.756165 
	C256.000702,398.759064 278.465240,398.767426 300.929810,398.775391 
	C302.260986,398.775848 303.593475,398.755371 304.923096,398.805145 
	C308.656311,398.944946 311.699371,400.338959 311.724518,404.490265 
	C311.750031,408.706207 308.635925,410.099182 304.925171,410.112640 
	C289.116913,410.169952 273.308411,410.149384 257.000000,410.157104 
z"/>
<path fill="#000000" opacity="1.000000" stroke="none" 
	d="
M297.957550,449.155212 
	C271.132172,449.149567 244.800201,449.150330 218.468216,449.136963 
	C211.893661,449.133636 209.004303,447.481567 208.816956,443.692322 
	C208.628098,439.872803 211.521149,438.028076 218.155579,438.016815 
	C246.153885,437.969238 274.152313,437.952728 302.150665,437.976868 
	C308.917114,437.982727 311.633026,439.646484 311.687683,443.482086 
	C311.746307,447.598663 309.031372,449.183533 301.950867,449.165741 
	C300.784210,449.162811 299.617584,449.159515 297.957550,449.155212 
z"/>
<path fill="#000000" opacity="1.000000" stroke="none" 
	d="
M298.947662,369.392761 
	C271.468994,369.393158 244.481277,369.393829 217.493561,369.388672 
	C216.161850,369.388428 214.815140,369.454254 213.501465,369.285950 
	C210.556244,368.908722 209.164246,366.898163 208.933044,364.175568 
	C208.700516,361.437408 210.376602,359.773071 212.868240,359.144104 
	C214.452652,358.744141 216.161880,358.729889 217.815308,358.728424 
	C245.969147,358.703705 274.122986,358.702179 302.276855,358.721008 
	C303.932220,358.722137 305.653259,358.692108 307.228088,359.111176 
	C309.902802,359.822968 311.560181,361.581390 311.257721,364.586243 
	C310.967072,367.473633 309.369812,369.170685 306.433136,369.326202 
	C304.106964,369.449402 301.770508,369.377289 298.947662,369.392761 
z"/>
<path fill="#000000" opacity="1.000000" stroke="none" 
	d="
M309.561462,94.866196 
	C314.249847,95.813065 318.454620,96.803459 322.462250,98.513550 
	C325.743591,99.913719 327.231201,102.394524 325.981659,105.700935 
	C324.767517,108.913551 322.020660,109.281654 318.910431,108.301636 
	C304.392090,103.726990 291.675537,106.424805 281.075714,117.723267 
	C278.762848,120.188599 275.866669,121.130974 273.116241,118.679199 
	C270.448517,116.301086 270.852448,113.318291 272.807465,110.559448 
	C279.965515,100.458252 290.139435,95.874634 302.124847,94.751755 
	C304.433777,94.535446 306.784607,94.766739 309.561462,94.866196 
z"/>
<path fill="#000000" opacity="1.000000" stroke="none" 
	d="
M458.433350,106.290131 
	C455.395782,106.914917 452.826111,107.604874 450.217163,108.078606 
	C447.029144,108.657478 444.042480,108.319786 443.002106,104.605278 
	C442.074127,101.292252 443.921234,99.328339 446.762939,97.929184 
	C461.384918,90.729805 482.926819,95.133514 493.463684,107.541000 
	C494.213318,108.423714 494.840881,109.411278 495.510742,110.360344 
	C497.421417,113.067596 498.226410,115.898827 495.377930,118.379539 
	C492.524353,120.864670 489.848572,119.678703 487.454651,117.368942 
	C486.976105,116.907204 486.492218,116.450951 486.017059,115.985733 
	C478.461853,108.588501 469.570618,104.919876 458.433350,106.290131 
z"/>
</svg>