<svg xmlns="http://www.w3.org/2000/svg" width="22" height="22" viewBox="0 0 22 22" fill="none">
    <path d="M1.83274 19.3446C3.16479 20.7896 5.6424 20.7896 10.5998 20.7896H11.3991C16.3565 20.7896 18.8352 20.7896 20.1673 19.3446M1.83274 19.3446C0.500695 17.8986 0.958031 15.7046 1.87159 11.3146C2.52097 8.19458 2.8451 6.63358 4.07835 5.71158M20.1673 19.3446C21.4993 17.8986 21.042 15.7046 20.1284 11.3146C19.479 8.19458 19.1538 6.63358 17.9205 5.71158M17.9205 5.71158C16.6884 4.78958 14.9245 4.78958 11.4002 4.78958H10.5987C7.07435 4.78958 5.3116 4.78958 4.07835 5.71158" stroke="black" stroke-width="1.5"/>
    <path d="M8.77937 13.0896L10.259 14.2896L13.2195 11.2896" stroke="black" stroke-width="1.5" stroke-linecap="round" stroke-linejoin="round"/>
    <path d="M7.66933 4.78958V3.78958C7.66933 2.99393 8.02018 2.23087 8.6447 1.66826C9.26922 1.10565 10.1162 0.789581 10.9994 0.789581C11.8826 0.789581 12.7297 1.10565 13.3542 1.66826C13.9787 2.23087 14.3296 2.99393 14.3296 3.78958V4.78958" stroke="black" stroke-width="1.5" stroke-linecap="round"/>
</svg>