<svg xmlns="http://www.w3.org/2000/svg" width="22" height="22" viewBox="0 0 22 22" fill="none">
    <path d="M7.66667 3.66669H3.66667C2.95942 3.66669 2.28115 3.94764 1.78105 4.44774C1.28095 4.94783 1 5.62611 1 6.33335V18.3334C1 19.0406 1.28095 19.7189 1.78105 20.219C2.28115 20.7191 2.95942 21 3.66667 21H15.6667C16.3739 21 17.0522 20.7191 17.5523 20.219C18.0524 19.7189 18.3333 19.0406 18.3333 18.3334V14.3334" stroke="#2B3138" stroke-width="2" stroke-linecap="round" stroke-linejoin="round"/>
    <path d="M13 5C13 6.06087 13.4214 7.07828 14.1716 7.82843C14.9217 8.57858 15.9391 9 17 9C18.0609 9 19.0783 8.57858 19.8284 7.82843C20.5786 7.07828 21 6.06087 21 5C21 3.93914 20.5786 2.92172 19.8284 2.17157C19.0783 1.42143 18.0609 1 17 1C15.9391 1 14.9217 1.42143 14.1716 2.17157C13.4214 2.92172 13 3.93914 13 5Z" stroke="#2B3138" stroke-width="2" stroke-linecap="round" stroke-linejoin="round"/>
</svg>